<svg xmlns="http://www.w3.org/2000/svg" xmlns:xlink="http://www.w3.org/1999/xlink" width="200" height="150" viewBox="0 0 200 150" fill="none"><g opacity="1" transform="translate(0 0)  rotate(0 100 75)"><path id="矩形 1" fill-rule="evenodd" style="fill:#FFFFFF" transform="translate(0 0)  rotate(0 100 75)" opacity="1" d="M0,150L200,150L200,0L0,0L0,150Z " /><path id="矩形 2" fill-rule="evenodd" style="fill:#383838" transform="translate(0 0)  rotate(0 25 75)" opacity="1" d="M0,150L50,150L50,0L0,0L0,150Z " /><path id="矩形 3" fill-rule="evenodd" style="fill:#F1F5F8" transform="translate(60 0)  rotate(0 70 8)" opacity="1" d="M0,16L140,16L140,0L0,0L0,16Z " /><path id="矩形 3" fill-rule="evenodd" style="fill:#F1F5F8" transform="translate(60 134)  rotate(0 70 8)" opacity="1" d="M0,16L140,16L140,0L0,0L0,16Z " /><path id="矩形 4" fill-rule="evenodd" style="fill:#808080" transform="translate(6 8)  rotate(0 19 6)" opacity="1" d="M6,12L32,12C33.59,12 35.12,11.37 36.24,10.24C37.37,9.12 38,7.59 38,6L38,6C38,4.41 37.37,2.88 36.24,1.76C35.12,0.63 33.59,0 32,0L6,0C4.41,0 2.88,0.63 1.76,1.76C0.63,2.88 0,4.41 0,6L0,6C0,7.59 0.63,9.12 1.76,10.24C2.88,11.37 4.41,12 6,12Z " /><path id="矩形 4" fill-rule="evenodd" style="fill:#808080" transform="translate(6 56)  rotate(0 19 4)" opacity="1" d="M0,8L38,8L38,0L0,0L0,8Z " /><path id="矩形 4" fill-rule="evenodd" style="fill:#808080" transform="translate(6 71)  rotate(0 19 4)" opacity="1" d="M0,8L38,8L38,0L0,0L0,8Z " /><path id="矩形 4" fill-rule="evenodd" style="fill:#808080" transform="translate(6 86)  rotate(0 19 4)" opacity="1" d="M0,8L38,8L38,0L0,0L0,8Z " /></g></svg>