<svg xmlns="http://www.w3.org/2000/svg" xmlns:xlink="http://www.w3.org/1999/xlink" width="200" height="150" viewBox="0 0 200 150" fill="none"><g opacity="1" transform="translate(0 0)  rotate(0 100 75)"><g opacity="1" transform="translate(0 0)  rotate(0 100 75)"><path id="矩形 1" fill-rule="evenodd" style="fill:#FFFFFF" transform="translate(0 0)  rotate(0 100 75)" opacity="1" d="M0,150L200,150L200,0L0,0L0,150Z " /><path id="矩形 3" fill-rule="evenodd" style="fill:#F1F5F8" transform="translate(0 0)  rotate(0 100 12.5)" opacity="1" d="M0,25L200,25L200,0L0,0L0,25Z " /><path id="矩形 3" fill-rule="evenodd" style="fill:#F1F5F8" transform="translate(7.105427357601002e-15 134)  rotate(0 100 8)" opacity="1" d="M200,0L0,0L0,8L0,16L200,16L200,0Z " /><path id="矩形 4" fill-rule="evenodd" style="fill:#CCD4E1" transform="translate(155 9)  rotate(0 19 4)" opacity="1" d="M0,8L38,8L38,0L0,0L0,8Z " /><path id="矩形 4" fill-rule="evenodd" style="fill:#CCD4E1" transform="translate(111 9)  rotate(0 19 4)" opacity="1" d="M0,8L38,8L38,0L0,0L0,8Z " /></g><path id="矩形 5" fill-rule="evenodd" style="fill:#CCD4E1" transform="translate(8 6.5)  rotate(0 6 6)" opacity="1" d="M6,12L6,12C7.59,12 9.12,11.37 10.24,10.24C11.37,9.12 12,7.59 12,6L12,6C12,4.41 11.37,2.88 10.24,1.76C9.12,0.63 7.59,0 6,0L6,0C4.41,0 2.88,0.63 1.76,1.76C0.63,2.88 0,4.41 0,6L0,6C0,7.59 0.63,9.12 1.76,10.24C2.88,11.37 4.41,12 6,12Z " /></g></svg>